<?xml version="1.0" encoding="UTF-8" standalone="no"?>
<!-- Created with Inkscape (http://www.inkscape.org/) -->
<svg
   xmlns:svg="http://www.w3.org/2000/svg"
   xmlns="http://www.w3.org/2000/svg"
   version="1.0"
   width="22mm"
   height="12mm"
   id="svg2">
  <defs
     id="defs2200" />
  <path
     d="M 2.0,25.3 L 23.0,25.3"
     style="fill:none;stroke:#000000;stroke-width:1mm;stroke-linecap:square;stroke-opacity:1"
     id="path13492" />
  <path
     d="M 54.0,25.3 L 76.0,25.3"
     style="fill:none;stroke:#000000;stroke-width:1mm;stroke-linecap:square;stroke-opacity:1"
     id="path13494" />
  <path
     d="M 23.0,39.3 L 23.0,11.3 51.4 25.3 23.0 39.3 z "
     style="fill:none;stroke:#000000;stroke-width:1mm;stroke-linecap:square;stroke-opacity:1"
     id="path13490" />
  <path
     d="M 52.7,39.3 L 52.7,11.3"
     style="fill:none;stroke:#000000;stroke-width:1mm;stroke-linecap:square;stroke-opacity:1"
     id="path14470" />
  <path
     d="M 38.5,0.4 L 32.5,4.3 L 34.9,5.5 L 32.4,10.4 L 32,11.2 L 33.6,12 L 34,11.2 L 36.5,6.3 L 38.8,7.5 L 38.5,0.4 z "
     style="fill:#000000;fill-opacity:1;stroke:none"
     id="path3347" />
  <path
     d="M 47,4.8 L 41.1,8.6 L 43.5,9.8 L 41,14.7 L 40.6,15.5 L 42.2,16.3 L 42.6,15.5 L 45,10.6 L 47.4,11.8 L 47,4.8 z "
     style="fill:#000000;fill-opacity:1;stroke:none"
     id="path3349" />
</svg> 
