<?xml version="1.0" encoding="UTF-8" standalone="no"?>
<!-- Created with Inkscape (http://www.inkscape.org/) -->

<svg
   xmlns:dc="http://purl.org/dc/elements/1.1/"
   xmlns:cc="http://creativecommons.org/ns#"
   xmlns:rdf="http://www.w3.org/1999/02/22-rdf-syntax-ns#"
   xmlns:svg="http://www.w3.org/2000/svg"
   xmlns="http://www.w3.org/2000/svg"
   version="1.1"
   width="285"
   height="209"
   id="svg2">
  <defs
     id="defs4" />
  <metadata
     id="metadata7">
    <rdf:RDF>
      <cc:Work
         rdf:about="">
        <dc:format>image/svg+xml</dc:format>
        <dc:type
           rdf:resource="http://purl.org/dc/dcmitype/StillImage" />
        <dc:title></dc:title>
      </cc:Work>
    </rdf:RDF>
  </metadata>
  <g
     transform="translate(-113.74565,-516.54885)"
     id="layer1">
    <path
       d="m 198.53498,700.17904 c -0.22776,-0.13917 -0.49387,-0.40293 -0.59136,-0.58614 -0.14177,-0.26643 -0.18321,-4.67005 -0.20705,-22.00064 l -0.0298,-21.66755 -2.10833,-0.24233 c -8.08375,-0.92919 -15.23796,-4.3985 -20.90554,-10.1378 -5.14635,-5.21145 -8.33042,-11.40403 -9.65443,-18.77653 -0.28326,-1.57732 -0.31812,-2.20251 -0.31812,-5.70545 0,-3.50292 0.0349,-4.12812 0.31812,-5.70544 0.91075,-5.07131 2.68129,-9.51995 5.43089,-13.64559 2.41521,-3.62391 5.96198,-7.17273 9.60453,-9.6101 4.64851,-3.11049 9.84984,-5.00635 15.52455,-5.65863 l 2.10833,-0.24234 0.03,-21.69998 c 0.0277,-20.06638 0.0474,-21.72664 0.26205,-22.0542 0.12766,-0.19482 0.40614,-0.44421 0.61885,-0.55422 0.58533,-0.30268 156.33393,-0.30268 156.91926,0 0.21271,0.11001 0.50467,0.374 0.64881,0.58666 0.252,0.3718 0.2635,0.87432 0.29934,13.08676 l 0.0373,12.70011 8.34504,4.17514 c 9.03575,4.52072 8.76583,4.3518 8.76583,5.48569 0,1.16494 0.93979,0.63164 -16.36011,9.28374 l -15.93823,7.97111 15.93809,7.97045 c 17.30091,8.65198 16.36025,8.1182 16.36025,9.28362 0,1.16542 0.94066,0.63164 -16.36025,9.28361 l -15.93809,7.97046 15.93823,7.9711 c 17.2999,8.6521 16.36011,8.1188 16.36011,9.28374 0,1.16494 0.94002,0.63152 -16.36275,9.28507 l -15.94087,7.97241 7.19385,3.58742 c 4.75224,2.36983 7.30269,3.71577 7.51447,3.96559 0.20475,0.24149 0.3518,0.64059 0.40692,1.10429 0.0475,0.39936 0.0675,6.50289 0.0446,13.56342 -0.0401,12.34324 -0.0518,12.85219 -0.30374,13.22397 -0.14413,0.21265 -0.43609,0.47665 -0.6488,0.58664 -0.3364,0.17396 -10.55838,0.19994 -78.48729,0.1995 -75.48735,0 -78.11438,-0.009 -78.51463,-0.25356 z m 154.53091,-14.72152 0,-11.52468 -8.41708,-4.21224 c -9.11296,-4.56049 -8.83737,-4.38831 -8.83737,-5.52185 0,-1.16542 -0.94066,-0.63164 16.36024,-9.28362 l 15.9381,-7.97045 -15.93823,-7.97111 c -17.2999,-8.6521 -16.36011,-8.1188 -16.36011,-9.28374 0,-1.16494 -0.93979,-0.63163 16.36011,-9.28374 l 15.93823,-7.9711 -15.9381,-7.97046 c -17.3009,-8.65196 -16.36024,-8.11819 -16.36024,-9.28361 0,-1.16493 -0.93992,-0.63157 16.36147,-9.28442 l 15.9396,-7.97179 -7.19126,-3.58805 c -4.87412,-2.43192 -7.29826,-3.71377 -7.52331,-3.97824 l -0.33205,-0.39019 0,-12.41261 0,-12.41262 -75.91961,0 -75.91961,0 0,20.53689 0,20.5369 2.10505,0.23802 c 7.98791,0.90319 15.18636,4.40082 20.83981,10.12582 2.72483,2.7593 4.61341,5.38579 6.36164,8.84728 1.64193,3.25102 2.62681,6.22088 3.29278,9.92925 0.28327,1.57732 0.31813,2.20252 0.31813,5.70544 0,3.50294 -0.0349,4.12813 -0.31813,5.70545 -0.66597,3.70837 -1.65085,6.67825 -3.29278,9.92925 -5.34507,10.58319 -15.47217,17.64689 -27.20145,18.97311 l -2.10505,0.23801 0,20.53689 0,20.53691 75.91961,0 75.91961,0 0,-11.5247 z m -41.68677,-67.51279 0,-12.0902 4.86576,0.0613 c 3.96179,0.0499 5.03108,0.10434 5.75569,0.2929 2.6784,0.69697 4.24725,2.25538 4.77431,4.74257 0.70967,3.34891 -0.51283,6.30713 -3.07465,7.44009 l -0.79316,0.35077 0.41312,0.20946 c 0.644,0.32652 1.70076,1.40185 2.34582,2.38705 0.3231,0.49348 1.46483,2.65201 2.53719,4.79673 l 1.94972,3.89951 -1.72318,0 -1.72319,0 -1.85879,-3.70168 c -1.02233,-2.03593 -2.14013,-4.08387 -2.48401,-4.55098 -1.1894,-1.6157 -2.15873,-1.96197 -5.4922,-1.96197 l -2.17957,0 0,5.10731 0,5.10732 -1.65643,0 -1.65643,0 0,-12.09019 z m 10.02201,-1.30038 c 0.73059,-0.37169 1.05389,-0.63671 1.39095,-1.14017 1.1619,-1.73559 0.86225,-4.84765 -0.57736,-5.99635 -1.01385,-0.80897 -1.54148,-0.91968 -4.6585,-0.97748 l -2.86424,-0.0531 0,4.37225 0,4.37224 2.87867,-0.0466 2.87866,-0.0466 0.95182,-0.48424 z m -52.81306,-34.85289 0,-12.07812 1.65643,0 1.65643,0 0,12.07812 0,12.07812 -1.65643,0 -1.65643,0 0,-12.07812 z m 17.91091,-11.07802 c -0.40556,-0.25145 -0.79449,-0.93268 -0.79449,-1.39157 0,-0.6574 0.44431,-1.20915 3.21391,-3.99116 l 2.9202,-2.93326 -20.4732,0 c -18.66296,0 -20.51523,-0.02 -20.94875,-0.22566 -1.18165,-0.56073 -1.18165,-2.43883 0,-2.99956 0.43352,-0.20571 2.28579,-0.22567 20.94875,-0.22567 l 20.4732,0 -2.9202,-2.93326 c -3.32401,-3.33889 -3.5147,-3.63801 -3.00462,-4.71292 0.39075,-0.82347 1.53171,-1.16568 2.38574,-0.71557 0.205,0.10805 2.39896,2.23552 4.87548,4.72772 3.41168,3.43332 4.52101,4.63161 4.57823,4.94537 0.17618,0.96628 0.10063,1.06256 -4.37227,5.57179 -2.36203,2.3812 -4.53684,4.50868 -4.83294,4.72772 -0.62971,0.46584 -1.44877,0.52822 -2.04904,0.15603 z m -81.61436,81.29117 c 4.27592,-0.81825 8.18416,-2.36204 11.56602,-4.56868 2.1373,-1.39457 3.24969,-2.30642 5.21523,-4.275 4.07833,-4.08465 6.76874,-8.81575 8.19876,-14.41756 0.63837,-2.50067 0.90168,-4.74357 0.90168,-7.68076 0,-2.9372 -0.26331,-5.18009 -0.90168,-7.68076 -1.43234,-5.61087 -4.11384,-10.32631 -8.19876,-14.41756 -1.96578,-1.96883 -3.07832,-2.88076 -5.21523,-4.27484 -2.72433,-1.7773 -5.78513,-3.12577 -9.05348,-3.98863 -3.07419,-0.8116 -3.83871,-0.89777 -7.96495,-0.89777 -4.12624,0 -4.89076,0.0862 -7.96495,0.89777 -5.31674,1.40363 -9.80352,3.93233 -13.81425,7.78555 -5.10385,4.9034 -8.44011,11.48425 -9.3349,18.41332 -0.28673,2.22044 -0.28673,6.10539 0,8.32584 0.87285,6.75915 3.97297,13.02032 8.88044,17.9354 1.96578,1.96881 3.07833,2.88076 5.21524,4.27484 3.9849,2.59968 8.21923,4.11376 13.63655,4.87609 0.22775,0.032 1.967,0.0414 3.865,0.0208 2.82252,-0.0306 3.72737,-0.0904 4.96928,-0.32804 z m -14.43279,-12.02198 c -0.64998,-0.2009 -0.92062,-0.41037 -1.14725,-0.88796 -0.27993,-0.58992 -0.28374,-0.95729 -0.0157,-1.522 0.45211,-0.95274 -5e-4,-0.91203 10.14339,-0.91203 10.14409,0 9.69128,-0.0407 10.14339,0.91203 0.26812,0.56501 0.26417,0.93209 -0.0164,1.52331 -0.46586,0.98174 -0.0774,0.94371 -9.91995,0.97117 -4.85886,0.0136 -8.9932,-0.0245 -9.18743,-0.0845 z m 8.17951,-26.05272 c -0.81903,-0.40363 -0.85556,-0.60235 -0.85556,-4.65426 l 0,-3.65657 -3.69245,-0.0427 c -4.12565,-0.0478 -4.35376,-0.095 -4.77813,-0.98927 -0.27998,-0.59001 -0.2845,-0.95829 -0.0186,-1.51853 0.39205,-0.8262 0.46795,-0.84125 4.62423,-0.91682 l 3.79598,-0.069 0.069,-3.79598 c 0.0475,-2.61113 0.12138,-3.8873 0.23679,-4.08856 0.19206,-0.33494 0.97145,-0.74269 1.41964,-0.74269 0.51542,0 1.243,0.43038 1.48996,0.88134 0.20193,0.36874 0.24157,0.95606 0.27822,4.12246 l 0.0427,3.69245 3.66291,0 c 4.06934,0 4.25386,0.0361 4.66955,0.91203 0.26811,0.56502 0.26416,0.9321 -0.0164,1.52332 -0.42305,0.89151 -0.66055,0.94149 -4.70082,0.98933 l -3.61513,0.0428 -0.0428,3.61513 c -0.0479,4.04027 -0.0978,4.27777 -0.98933,4.70082 -0.59529,0.28249 -0.99868,0.28115 -1.57979,-0.005 z m -55.03455,7.93735 c -2.42943,-6.38683 -4.49153,-11.8206 -4.58246,-12.07505 l -0.16532,-0.46264 1.69513,0 1.69512,0 3.78456,10.07608 c 2.08152,5.54183 3.81613,10.0763 3.85471,10.07659 0.0385,0 1.77477,-4.53393 3.85821,-10.07606 l 3.78808,-10.07661 1.69716,0 1.69716,0 -0.24954,0.65567 c -0.13725,0.36063 -2.20235,5.79549 -4.58912,12.07749 l -4.33959,11.4218 -1.86348,-0.002 -1.86348,-0.002 -4.41714,-11.61242 z"
       id="path3070"
       style="fill:#010101" />
  </g>
</svg>
